<svg xmlns="http://www.w3.org/2000/svg" width="576" height="550" viewBox="0 0 576 550" version="1.1">
	<path d="M 279.759 54.887 C 204.856 161.611, 152.710 254.289, 135.656 311 C 130.372 328.569, 128.608 341.005, 129.280 355.942 C 130.293 378.424, 135.602 398.584, 146.020 419.500 C 167.775 463.179, 207.545 493.508, 257 504.137 C 265.919 506.053, 270.511 506.393, 287.500 506.393 C 304.489 506.393, 309.081 506.053, 318 504.137 C 333.100 500.891, 344.811 496.798, 358.500 489.980 C 409.604 464.526, 443.152 412.970, 445.720 355.942 C 446.145 346.487, 445.855 340.804, 444.544 332.942 C 436.603 285.317, 397.190 207.224, 329.503 105 C 315.620 84.033, 290.242 47.118, 288.084 44.750 C 287.707 44.337, 283.961 48.899, 279.759 54.887 M 261 210 L 261 220 269.533 220 L 278.066 220 277.783 231.185 L 277.500 242.370 270.306 243.580 C 242.262 248.299, 217.057 264.870, 201.112 289.073 C 194.821 298.624, 190.317 308.932, 186.740 321.969 C 183.576 333.501, 183.643 358.159, 186.871 370.433 C 197.112 409.365, 224.188 436.346, 263.969 447.260 C 275.501 450.424, 300.159 450.357, 312.433 447.129 C 351.365 436.888, 378.346 409.812, 389.260 370.031 C 392.424 358.499, 392.357 333.841, 389.129 321.567 C 386.224 310.525, 381.554 299.319, 376.695 291.731 C 374.663 288.557, 373 285.647, 373 285.262 C 373 284.878, 375.230 282.299, 377.955 279.531 L 382.911 274.500 376.205 267.193 L 369.500 259.885 364.339 264.443 C 361.500 266.949, 358.906 269, 358.575 269 C 358.243 269, 355.530 267.011, 352.545 264.580 C 340.181 254.509, 322.065 246.343, 306.125 243.654 L 298.500 242.367 298.217 231.184 L 297.934 220 306.467 220 L 315 220 315 210 L 315 200 288 200 L 261 200 261 210 M 274.164 263.121 C 265.855 264.503, 254.221 268.708, 246 273.302 C 235.861 278.968, 221.035 293.806, 215.306 304.021 C 200.373 330.646, 200.372 361.282, 215.302 388 C 220.968 398.139, 235.806 412.965, 246.021 418.694 C 272.646 433.627, 303.282 433.628, 330 418.698 C 340.139 413.032, 354.965 398.194, 360.694 387.979 C 375.627 361.354, 375.628 330.718, 360.698 304 C 355.032 293.861, 340.194 279.035, 329.979 273.306 C 312.934 263.746, 292.657 260.046, 274.164 263.121 M 278 339 L 278 376 288 376 L 298 376 298 339 L 298 302 288 302 L 278 302 278 339" stroke="none" fill="black" fill-rule="evenodd"/>
</svg>