<svg xmlns="http://www.w3.org/2000/svg" width="576" height="550" viewBox="0 0 576 550" version="1.1">
	<path d="M 279.759 54.887 C 204.856 161.611, 152.710 254.289, 135.656 311 C 130.372 328.569, 128.608 341.005, 129.280 355.942 C 130.293 378.424, 135.602 398.584, 146.020 419.500 C 167.775 463.179, 207.545 493.508, 257 504.137 C 265.919 506.053, 270.511 506.393, 287.500 506.393 C 304.489 506.393, 309.081 506.053, 318 504.137 C 333.100 500.891, 344.811 496.798, 358.500 489.980 C 409.604 464.526, 443.152 412.970, 445.720 355.942 C 446.145 346.487, 445.855 340.804, 444.544 332.942 C 436.603 285.317, 397.190 207.224, 329.503 105 C 315.620 84.033, 290.242 47.118, 288.084 44.750 C 287.707 44.337, 283.961 48.899, 279.759 54.887 M 261 215 L 261 220 272.500 220 L 284 220 284 233.298 L 284 246.596 275.038 247.727 C 235.678 252.695, 202.731 281.755, 192.274 320.726 C 189.968 329.320, 189.655 332.371, 189.679 346 C 189.702 358.534, 190.106 362.969, 191.793 369.175 C 202.058 406.933, 230.521 434.524, 267.500 442.563 C 279.287 445.125, 298.890 444.930, 310.375 442.137 C 364.264 429.030, 397.021 375.630, 384.003 322.107 C 381.684 312.572, 375.864 299.514, 369.739 290.105 L 365.576 283.710 372.490 277.474 L 379.404 271.237 376.452 267.691 C 374.828 265.740, 373.228 264.112, 372.895 264.072 C 372.562 264.032, 369.316 266.724, 365.683 270.054 L 359.076 276.107 350.371 269.065 C 336.440 257.795, 316.984 249.432, 300.250 247.518 L 294 246.804 294 233.402 L 294 220 304.500 220 L 315 220 315 215 L 315 210 288 210 L 261 210 261 215 M 270 258.492 C 215.794 270.619, 185.298 326.754, 205.067 378.017 C 219.465 415.353, 259.806 439.410, 299 434.033 C 318.923 431.300, 335.822 423.006, 350.002 409 C 368.964 390.272, 377.996 367.429, 376.690 341.500 C 374.763 303.206, 348.972 270.704, 311.992 259.966 C 302.177 257.116, 279.682 256.326, 270 258.492 M 284 325.500 L 284 362 289 362 L 294 362 294 325.500 L 294 289 289 289 L 284 289 284 325.500" stroke="none" fill="black" fill-rule="evenodd"/>
</svg>