<svg xmlns="http://www.w3.org/2000/svg" width="500" height="496" viewBox="0 0 500 496" version="1.1">
	<path d="M 241.759 27.887 C 166.856 134.611, 114.710 227.289, 97.656 284 C 92.372 301.569, 90.608 314.005, 91.280 328.942 C 92.293 351.424, 97.602 371.584, 108.020 392.500 C 129.775 436.179, 169.545 466.508, 219 477.137 C 227.919 479.053, 232.511 479.393, 249.500 479.393 C 266.489 479.393, 271.081 479.053, 280 477.137 C 295.100 473.891, 306.811 469.798, 320.500 462.980 C 371.604 437.526, 405.152 385.970, 407.720 328.942 C 408.145 319.487, 407.855 313.804, 406.544 305.942 C 398.603 258.317, 359.190 180.224, 291.503 78 C 277.620 57.033, 252.242 20.118, 250.084 17.750 C 249.707 17.337, 245.961 21.899, 241.759 27.887 M 223 188 L 223 193 234.500 193 L 246 193 246 206.298 L 246 219.596 237.038 220.727 C 197.678 225.695, 164.731 254.755, 154.274 293.726 C 151.968 302.320, 151.655 305.371, 151.679 319 C 151.702 331.534, 152.106 335.969, 153.793 342.175 C 164.058 379.933, 192.521 407.524, 229.500 415.563 C 241.287 418.125, 260.890 417.930, 272.375 415.137 C 326.264 402.030, 359.021 348.630, 346.003 295.107 C 343.684 285.572, 337.864 272.514, 331.739 263.105 L 327.576 256.710 334.490 250.474 L 341.404 244.237 338.452 240.691 C 336.828 238.740, 335.228 237.112, 334.895 237.072 C 334.562 237.032, 331.316 239.724, 327.683 243.054 L 321.076 249.107 312.371 242.065 C 298.440 230.795, 278.984 222.432, 262.250 220.518 L 256 219.804 256 206.402 L 256 193 266.500 193 L 277 193 277 188 L 277 183 250 183 L 223 183 223 188 M 232 231.492 C 177.794 243.619, 147.298 299.754, 167.067 351.017 C 181.465 388.353, 221.806 412.410, 261 407.033 C 280.923 404.300, 297.822 396.006, 312.002 382 C 330.964 363.272, 339.996 340.429, 338.690 314.500 C 336.763 276.206, 310.972 243.704, 273.992 232.966 C 264.177 230.116, 241.682 229.326, 232 231.492 M 246 298.500 L 246 335 251 335 L 256 335 256 298.500 L 256 262 251 262 L 246 262 246 298.500" stroke="none" fill="black" fill-rule="evenodd"/>
</svg>