<?xml version="1.0" encoding="UTF-8"?><svg xmlns="http://www.w3.org/2000/svg" viewBox="0 0 1000 1000" x="0px" y="0px" width="1000px" height="1000px" version="1.1" xmlns:xlink="http://www.w3.org/1999/xlink"><g style="isolation:isolate"><g id="Layer_1" data-name="Layer 1"><path d="M531.33,779.577H452.136a5,5,0,1,1,0-10H531.33a5,5,0,1,1,0,10Z" fill="#3b6b7d"/><path d="M430,779.577H417.345a5,5,0,0,1,0-10H430a5,5,0,1,1,0,10Z" fill="#3b6b7d"/><g opacity="0.23" style="mix-blend-mode:multiply"><path d="M606.905,428.378H545.043a3,3,0,0,1,0-6h58.862V394.447a3,3,0,0,1,6,0v30.931A3,3,0,0,1,606.905,428.378Z" fill="#474747"/><path d="M668.767,428.378H606.905a3,3,0,0,1-3-3V394.447a3,3,0,0,1,6,0v27.931h58.862a3,3,0,0,1,0,6Z" fill="#474747"/><path d="M637.836,459.309H575.974a3,3,0,0,1-3-3V425.378a3,3,0,0,1,3-3h61.862a3,3,0,0,1,3,3v30.931A3,3,0,0,1,637.836,459.309Zm-58.862-6h55.862V428.378H578.974Z" fill="#474747"/><path d="M624.482,490.24H606.905a3,3,0,0,1-3-3V456.309a3,3,0,0,1,3-3h61.862a3,3,0,0,1,0,6H609.905V484.24h14.577a3,3,0,0,1,0,6Z" fill="#474747"/><path d="M606.905,490.24H556.742a3,3,0,0,1,0-6h47.163V459.309H545.043a3,3,0,0,1,0-6h61.862a3,3,0,0,1,3,3V487.24A3,3,0,0,1,606.905,490.24Z" fill="#474747"/><path d="M575.974,459.309H545.043a3,3,0,0,1,0-6h27.931V428.378H523.956a3,3,0,0,1,0-6h52.018a3,3,0,0,1,3,3v30.931A3,3,0,0,1,575.974,459.309Z" fill="#474747"/><path d="M682.478,459.309H637.836a3,3,0,0,1-3-3V425.378a3,3,0,0,1,3-3h21.443a3,3,0,0,1,0,6H640.836v24.931h41.642a3,3,0,0,1,0,6Z" fill="#474747"/></g><g opacity="0.23" style="mix-blend-mode:multiply"><path d="M860.113,601.519H798.251a3,3,0,0,1,0-6h58.862V567.587a3,3,0,0,1,6,0v30.932A3,3,0,0,1,860.113,601.519Z" fill="#474747"/><path d="M921.975,601.519H860.113a3,3,0,0,1-3-3V567.587a3,3,0,0,1,6,0v27.932h58.862a3,3,0,1,1,0,6Z" fill="#474747"/><path d="M891.044,632.449H829.182a3,3,0,0,1-3-3v-30.93a3,3,0,0,1,3-3h61.862a3,3,0,0,1,3,3v30.93A3,3,0,0,1,891.044,632.449Zm-58.862-6h55.862v-24.93H832.182Z" fill="#474747"/><path d="M877.69,663.38H860.113a3,3,0,0,1-3-3V629.449a3,3,0,0,1,3-3h61.862a3,3,0,0,1,0,6H863.113V657.38H877.69a3,3,0,0,1,0,6Z" fill="#474747"/><path d="M860.113,663.38H809.95a3,3,0,0,1,0-6h47.163V632.449H798.251a3,3,0,0,1,0-6h61.862a3,3,0,0,1,3,3V660.38A3,3,0,0,1,860.113,663.38Z" fill="#474747"/><path d="M829.182,632.449H798.251a3,3,0,0,1,0-6h27.931v-24.93H777.164a3,3,0,0,1,0-6h52.018a3,3,0,0,1,3,3v30.93A3,3,0,0,1,829.182,632.449Z" fill="#474747"/><path d="M935.686,632.449H891.044a3,3,0,0,1-3-3v-30.93a3,3,0,0,1,3-3h21.443a3,3,0,0,1,0,6H894.044v24.93h41.642a3,3,0,0,1,0,6Z" fill="#474747"/></g><g opacity="0.23" style="mix-blend-mode:multiply"><path d="M119.116,556.534H57.253a3,3,0,0,1,0-6h58.863V522.6a3,3,0,0,1,6,0v30.93A3,3,0,0,1,119.116,556.534Z" fill="#474747"/><path d="M180.978,556.534H119.116a3,3,0,0,1-3-3V522.6a3,3,0,0,1,6,0v27.93h58.862a3,3,0,0,1,0,6Z" fill="#474747"/><path d="M150.046,587.466H88.185a3,3,0,0,1-3-3V553.534a3,3,0,0,1,3-3h61.861a3,3,0,0,1,3,3v30.932A3,3,0,0,1,150.046,587.466Zm-58.861-6h55.861V556.534H91.185Z" fill="#474747"/><path d="M136.693,618.4H119.116a3,3,0,0,1-3-3v-30.93a3,3,0,0,1,3-3h61.862a3,3,0,0,1,0,6H122.116V612.4h14.577a3,3,0,0,1,0,6Z" fill="#474747"/><path d="M119.116,618.4H68.953a3,3,0,1,1,0-6h47.163v-24.93H57.253a3,3,0,0,1,0-6h61.863a3,3,0,0,1,3,3V615.4A3,3,0,0,1,119.116,618.4Z" fill="#474747"/><path d="M88.185,587.466H57.253a3,3,0,0,1,0-6H85.185V556.534H36.167a3,3,0,0,1,0-6H88.185a3,3,0,0,1,3,3v30.932A3,3,0,0,1,88.185,587.466Z" fill="#474747"/><path d="M194.688,587.466H150.046a3,3,0,0,1-3-3V553.534a3,3,0,0,1,3-3H171.49a3,3,0,0,1,0,6H153.046v24.932h41.642a3,3,0,0,1,0,6Z" fill="#474747"/></g><path d="M902.947,731H618a5,5,0,0,1,0-10H902.947a5,5,0,1,1,0,10Z" fill="#3b6b7d"/><path d="M548,731H148.333a5,5,0,1,1,0-10H548a5,5,0,0,1,0,10Z" fill="#3b6b7d"/><path d="M125.5,731H119a5,5,0,0,1,0-10h6.5a5,5,0,0,1,0,10Z" fill="#3b6b7d"/><path d="M100,731H75.78a5,5,0,1,1,0-10H100a5,5,0,0,1,0,10Z" fill="#3b6b7d"/><path d="M475.209,560.479a25.635,25.635,0,0,0-23.243,14.82l-5.506-1.219a33.362,33.362,0,0,0-57.1-34.476,33.35,33.35,0,0,0-48.291-8.556,39.866,39.866,0,0,0-76.149-2.335A33.5,33.5,0,0,0,214.461,557.6c0,.033,0,.066,0,.1-.757-.06-1.52-.1-2.293-.1a28.516,28.516,0,0,0-28.516,28.517v50.116H500.846V586.117A25.638,25.638,0,0,0,475.209,560.479Z" fill="#f2cfb1"/><g opacity="0.58" style="mix-blend-mode:multiply"><path d="M475.209,560.479a25.635,25.635,0,0,0-23.243,14.82l-1.241-.275a33.176,33.176,0,0,1-4.265,14.056l5.506,1.219a25.637,25.637,0,0,1,48.88,10.818v-15A25.638,25.638,0,0,0,475.209,560.479Z" fill="#f2cfb1"/><path d="M212.17,572.6c.773,0,1.536.04,2.293.1,0-.034,0-.067,0-.1a33.5,33.5,0,0,1,50.459-28.887,39.866,39.866,0,0,1,76.149,2.335A33.35,33.35,0,0,1,389.36,554.6a33.359,33.359,0,0,1,60.595,10.473A33.355,33.355,0,0,0,389.36,539.6a33.35,33.35,0,0,0-48.291-8.556,39.866,39.866,0,0,0-76.149-2.335A33.5,33.5,0,0,0,214.461,557.6c0,.033,0,.066,0,.1-.757-.06-1.52-.1-2.293-.1a28.516,28.516,0,0,0-28.516,28.517v15A28.516,28.516,0,0,1,212.17,572.6Z" fill="#f2cfb1"/></g><path d="M500.847,641.233H183.653a5,5,0,0,1-5-5V586.116a33.561,33.561,0,0,1,31.12-33.431,38.5,38.5,0,0,1,52.572-30.8,44.867,44.867,0,0,1,81.326,1.608,38.392,38.392,0,0,1,45.689,7.973,38.362,38.362,0,0,1,66.115,31.238,30.614,30.614,0,0,1,50.372,23.408v50.117A5,5,0,0,1,500.847,641.233Zm-312.194-10H495.847V586.116a20.637,20.637,0,0,0-39.349-8.7,5,5,0,0,1-5.612,2.769l-5.507-1.219a5,5,0,0,1-3.265-7.356,28.362,28.362,0,0,0-48.547-29.3,5,5,0,0,1-8.415,0,28.35,28.35,0,0,0-41.053-7.281,5,5,0,0,1-7.851-2.652,34.866,34.866,0,0,0-66.6-2.04,5,5,0,0,1-7.265,2.689,28.5,28.5,0,0,0-42.925,24.557l0,.121a5,5,0,0,1-5.4,4.985c-.712-.058-1.332-.085-1.894-.085a23.543,23.543,0,0,0-23.517,23.516Z" fill="#3b6b7d"/><path d="M515,572H143v24h0a10,10,0,0,1,10,10v50a51.719,51.719,0,0,0,51.67,52h248c28.6,0,52.33-23.4,52.33-52V606a10,10,0,0,1,10-10h0Z" fill="#eaeaea"/><path d="M153,606v3.5H505V606a10,10,0,0,1,10-10V572H143v24A10,10,0,0,1,153,606Z" fill="#c6c6c6"/><path d="M452.67,713h-248A56.9,56.9,0,0,1,148,656V606a5.006,5.006,0,0,0-5-5,5,5,0,0,1-5-5V572a5,5,0,0,1,5-5H515a5,5,0,0,1,5,5v24a5,5,0,0,1-5,5,5.006,5.006,0,0,0-5,5v50A57.23,57.23,0,0,1,452.67,713ZM148,591.856A15.028,15.028,0,0,1,158,606v50a46.889,46.889,0,0,0,46.67,47h248A47.219,47.219,0,0,0,500,656V606a15.028,15.028,0,0,1,10-14.144V577H148Z" fill="#3b6b7d"/><rect x="143" y="572" width="372" height="24" fill="#d8d8d8"/><path d="M449,601H430.5a5,5,0,0,1,0-10H449a5,5,0,0,1,0,10Z" fill="#3b6b7d"/><path d="M515,601H463a5,5,0,0,1,0-10h47V577H148v14H413.07a5,5,0,0,1,0,10H143a5,5,0,0,1-5-5V572a5,5,0,0,1,5-5H515a5,5,0,0,1,5,5v24A5,5,0,0,1,515,601Z" fill="#3b6b7d"/><rect x="191" y="708" width="275" height="18" rx="9" fill="#c6c6c6"/><path d="M457,731H200a14,14,0,0,1,0-28H457a14,14,0,0,1,0,28ZM200,713a4,4,0,0,0,0,8H457a4,4,0,0,0,0-8Z" fill="#3b6b7d"/><path d="M173,575a6,6,0,0,1-6-6V303a57.767,57.767,0,0,1,107.81-28.849,6,6,0,0,1-10.392,6A45.766,45.766,0,0,0,179,303V569A6,6,0,0,1,173,575Z" fill="#3b6b7d"/><path d="M317.973,304.418c-.845-10.408-6.566-20.855-18.56-28.027a20.957,20.957,0,0,0-8.955-2.88c-30.846-2.636-47.018,26.251-35.837,48.612a33.4,33.4,0,0,0,7.755,10.1Z" fill="#87d1e8"/><path d="M262.377,337.22a5,5,0,0,1-3.314-1.255,38.507,38.507,0,0,1-6.325-50.472c8.243-12.148,22.144-18.334,38.145-16.964a26.06,26.06,0,0,1,11.1,3.571c12.462,7.451,19.913,18.785,20.977,31.914a5,5,0,0,1-2.747,4.877l-55.6,27.8A4.992,4.992,0,0,1,262.377,337.22Zm24.241-58.875c-10.823,0-20.03,4.547-25.605,12.763a28.526,28.526,0,0,0,2.331,35.038l49.188-24.6c-1.683-8.445-7.157-15.768-15.685-20.866a16,16,0,0,0-6.815-2.19Q288.3,278.345,286.618,278.345Z" fill="#3b6b7d"/><circle cx="327.844" cy="452.093" r="11.249" fill="#f2cfb1"/><path d="M327.844,468.342a16.25,16.25,0,1,1,16.249-16.249A16.267,16.267,0,0,1,327.844,468.342Zm0-22.5a6.25,6.25,0,1,0,6.249,6.25A6.257,6.257,0,0,0,327.844,445.843Z" fill="#3b6b7d"/><circle cx="392.833" cy="463.986" r="20.236" fill="#f2cfb1"/><path d="M392.833,489.223a25.237,25.237,0,1,1,25.237-25.237A25.265,25.265,0,0,1,392.833,489.223Zm0-40.473a15.237,15.237,0,1,0,15.237,15.236A15.253,15.253,0,0,0,392.833,448.75Z" fill="#3b6b7d"/><path d="M195,506.5H175.125a6.5,6.5,0,0,1,0-13H195a6.5,6.5,0,0,1,0,13Z" fill="#3b6b7d"/><path d="M206.667,513H191.25a5,5,0,0,1-5-5V492a5,5,0,0,1,5-5h15.417a13,13,0,1,1,0,26ZM196.25,503h10.417a3,3,0,1,0,0-6H196.25Z" fill="#3b6b7d"/><path d="M191.25,492h15.417a8,8,0,0,1,8,8v0a8,8,0,0,1-8,8H191.25a0,0,0,0,1,0,0V492A0,0,0,0,1,191.25,492Z" fill="#3b6b7d"/><path d="M298.87,383.205a2,2,0,0,1-1.925-1.459l-13.023-46.24a2,2,0,1,1,3.85-1.084l13.024,46.24a2,2,0,0,1-1.926,2.543Z" fill="#3b6b7d"/><path d="M342.251,356.75a2,2,0,0,1-1.533-.714l-28.812-34.312a2,2,0,0,1,3.064-2.572l28.812,34.312a2,2,0,0,1-1.531,3.286Z" fill="#3b6b7d"/><path d="M332.928,386.927a2,2,0,0,1-1.746-1.022l-11.343-20.223a2,2,0,1,1,3.489-1.957l11.342,20.223a2,2,0,0,1-1.742,2.979Z" fill="#3b6b7d"/><path d="M314.409,353.908a2,2,0,0,1-1.746-1.022l-13.407-23.9a2,2,0,0,1,3.488-1.957l13.407,23.9a2,2,0,0,1-1.742,2.979Z" fill="#3b6b7d"/><rect x="692.667" y="523" width="140" height="55" fill="#ef9e9d"/><rect x="692.667" y="523" width="140" height="12.5" fill="#ef9e9d" opacity="0.39" style="mix-blend-mode:color-burn"/><rect x="692.667" y="578" width="140" height="55" fill="#ef9e9d"/><rect x="692.667" y="577.75" width="140" height="12.5" fill="#ef9e9d" opacity="0.39" style="mix-blend-mode:color-burn"/><rect x="692.667" y="633" width="140" height="55" fill="#ef9e9d"/><rect x="692.667" y="633.75" width="140" height="12.5" fill="#ef9e9d" opacity="0.39" style="mix-blend-mode:color-burn"/><path d="M832.667,693h-140a5,5,0,0,1-5-5V523a5,5,0,0,1,5-5h140a5,5,0,0,1,5,5V688A5,5,0,0,1,832.667,693Zm-135-10h130V528h-130Z" fill="#3b6b7d"/><path d="M832.667,583h-140a5,5,0,0,1-5-5V523a5,5,0,0,1,5-5h140a5,5,0,0,1,5,5v55A5,5,0,0,1,832.667,583Zm-135-10h130V528h-130Z" fill="#3b6b7d"/><path d="M832.667,638h-140a5,5,0,0,1-5-5V578a5,5,0,0,1,5-5h140a5,5,0,0,1,5,5v55A5,5,0,0,1,832.667,638Zm-135-10h130V583h-130Z" fill="#3b6b7d"/><path d="M832.667,693h-140a5,5,0,0,1-5-5V633a5,5,0,0,1,5-5h140a5,5,0,0,1,5,5v55A5,5,0,0,1,832.667,693Zm-135-10h130V638h-130Z" fill="#3b6b7d"/><path d="M780.667,546h-36a5,5,0,1,1,0-10h36a5,5,0,0,1,0,10Z" fill="#3b6b7d"/><path d="M780.667,601h-36a5,5,0,1,1,0-10h36a5,5,0,0,1,0,10Z" fill="#3b6b7d"/><path d="M780.667,656h-36a5,5,0,1,1,0-10h36a5,5,0,0,1,0,10Z" fill="#3b6b7d"/><polygon points="714.85 726 701.683 726 716.85 688 742.85 688 714.85 726" fill="#3b6b7d"/><path d="M714.85,731H701.684a5,5,0,0,1-4.644-6.854l15.166-38A5,5,0,0,1,716.85,683h26a5,5,0,0,1,4.025,7.966l-28,38A5,5,0,0,1,714.85,731Zm-5.788-10h3.261l20.632-28H720.237Z" fill="#3b6b7d"/><path d="M827.066,731H813.9a5,5,0,0,1-4.025-2.034l-28-38A5,5,0,0,1,785.9,683h26a5,5,0,0,1,4.644,3.146l15.166,38A5,5,0,0,1,827.066,731Zm-10.639-10h3.261l-11.175-28H795.8Z" fill="#3b6b7d"/><polygon points="813.9 726 827.067 726 811.9 688 785.9 688 813.9 726" fill="#3b6b7d"/><rect x="755.667" y="448" width="14" height="42.667" fill="#87d1e8"/><path d="M769.667,495.667h-14a5,5,0,0,1-5-5V448a5,5,0,0,1,5-5h14a5,5,0,0,1,5,5v42.667A5,5,0,0,1,769.667,495.667Zm-9-10h4V453h-4Z" fill="#3b6b7d"/><circle cx="762.667" cy="503" r="18" fill="#87d1e8"/><path d="M762.667,526a23,23,0,1,1,23-23A23.025,23.025,0,0,1,762.667,526Zm0-36a13,13,0,1,0,13,13A13.015,13.015,0,0,0,762.667,490Z" fill="#3b6b7d"/><path d="M777.164,497.333a5,5,0,0,1-3.535-8.535l12.418-12.418a5,5,0,0,1,7.07,7.071L780.7,495.869A4.983,4.983,0,0,1,777.164,497.333Z" fill="#3b6b7d"/><path d="M796.946,488.5a4.984,4.984,0,0,1-3.535-1.464l-11-11a5,5,0,0,1,7.071-7.072l11,11a5,5,0,0,1-3.535,8.535Z" fill="#3b6b7d"/><path d="M778.337,458.5H747a5.265,5.265,0,0,1-4.928-7.118l4.546-12.092c2.311-6.147,8.775-10.29,16.053-10.29h0c7.278,0,13.741,4.143,16.052,10.29l4.547,12.092A5.265,5.265,0,0,1,778.337,458.5Z" fill="#87d1e8"/><path d="M778.338,463.5H747a10.266,10.266,0,0,1-9.609-13.877l4.548-12.093c3.041-8.092,11.373-13.53,20.732-13.53s17.689,5.438,20.732,13.53l4.547,12.093a10.265,10.265,0,0,1-9.608,13.877ZM762.667,434c-5.218,0-9.787,2.833-11.372,7.049l-4.548,12.093a.266.266,0,0,0,.249.358h31.342a.265.265,0,0,0,.248-.358l-4.547-12.093C772.454,436.833,767.884,434,762.667,434Z" fill="#3b6b7d"/><rect x="679.667" y="503" width="166" height="20" fill="#dd8a8a"/><path d="M845.667,528h-166a5,5,0,0,1-5-5V503a5,5,0,0,1,5-5h166a5,5,0,0,1,5,5v20A5,5,0,0,1,845.667,528Zm-161-10h156V508h-156Z" fill="#3b6b7d"/><rect x="682.667" y="224" width="160" height="192" fill="#bbeaf2"/><rect x="682.667" y="401.987" width="160" height="14.013" fill="#92d7e7" opacity="0.52" style="mix-blend-mode:multiply"/><rect x="682.667" y="224" width="160" height="14.107" fill="#92d7e7" opacity="0.48" style="mix-blend-mode:screen"/><path d="M842.667,421h-160a5,5,0,0,1-5-5V224a5,5,0,0,1,5-5h160a5,5,0,0,1,5,5V416A5,5,0,0,1,842.667,421Zm-155-10h150V229h-150Z" fill="#3b6b7d"/><path d="M866.333,421H659a5,5,0,0,1,0-10H866.333a5,5,0,1,1,0,10Z" fill="#3b6b7d"/><rect x="800.083" y="357.667" width="24.833" height="58.333" fill="#d3b379"/><path d="M824.917,421H800.083a5,5,0,0,1-5-5V357.667a5,5,0,0,1,5-5h24.834a5,5,0,0,1,5,5V416A5,5,0,0,1,824.917,421Zm-19.834-10h14.834V362.667H805.083Z" fill="#3b6b7d"/><path d="M811.5,333h2a6.417,6.417,0,0,1,6.417,6.417v18.25a0,0,0,0,1,0,0H805.083a0,0,0,0,1,0,0v-18.25A6.417,6.417,0,0,1,811.5,333Z" fill="#d0edf5"/><path d="M819.917,362.667H805.083a5,5,0,0,1-5-5v-18.25A11.43,11.43,0,0,1,811.5,328h2a11.43,11.43,0,0,1,11.417,11.417v18.25A5,5,0,0,1,819.917,362.667Zm-9.834-10h4.834v-13.25A1.418,1.418,0,0,0,813.5,338h-2a1.418,1.418,0,0,0-1.417,1.417Z" fill="#3b6b7d"/><path d="M710.744,313.281a3,3,0,0,1-2.121-5.121l43-43a3,3,0,0,1,4.242,4.242l-43,43A2.989,2.989,0,0,1,710.744,313.281Z" fill="#3b6b7d"/><path d="M764.315,300.831a3,3,0,0,1-2.121-5.122l38.75-38.75a3,3,0,0,1,4.243,4.243l-38.75,38.75A2.992,2.992,0,0,1,764.315,300.831Z" fill="#3b6b7d"/><path d="M722.982,342.164a3,3,0,0,1-2.121-5.121l27-27a3,3,0,0,1,4.243,4.242l-27,27A2.992,2.992,0,0,1,722.982,342.164Z" fill="#3b6b7d"/><path d="M589.736,244.107H440.093a6,6,0,0,1,0-12H589.736a6,6,0,0,1,0,12Z" fill="#3b6b7d"/><rect x="413.07" y="224" width="27.024" height="28.213" fill="#87d1e8"/><path d="M440.093,257.213H413.07a5,5,0,0,1-5-5V224a5,5,0,0,1,5-5h27.023a5,5,0,0,1,5,5v28.213A5,5,0,0,1,440.093,257.213Zm-22.023-10h17.023V229H418.07Z" fill="#3b6b7d"/><rect x="589.736" y="224" width="27.024" height="28.213" fill="#87d1e8"/><path d="M616.76,257.213H589.736a5,5,0,0,1-5-5V224a5,5,0,0,1,5-5H616.76a5,5,0,0,1,5,5v28.213A5,5,0,0,1,616.76,257.213Zm-22.024-10H611.76V229H594.736Z" fill="#3b6b7d"/><rect x="457" y="224" width="118" height="170.987" fill="#fff"/><rect x="457" y="224" width="118" height="18.511" fill="#d8d8d8" opacity="0.84"/><path d="M575,399.987H457a5,5,0,0,1-5-5V224a5,5,0,0,1,5-5H575a5,5,0,0,1,5,5V394.987A5,5,0,0,1,575,399.987Zm-113-10H570V229H462Z" fill="#3b6b7d"/><path d="M566.5,412.987a4,4,0,0,1-4-4v-14a4,4,0,0,1,8,0v14A4,4,0,0,1,566.5,412.987Z" fill="#3b6b7d"/><path d="M552.5,412.987a4,4,0,0,1-4-4v-14a4,4,0,0,1,8,0v14A4,4,0,0,1,552.5,412.987Z" fill="#3b6b7d"/><path d="M538.5,412.987a4,4,0,0,1-4-4v-14a4,4,0,0,1,8,0v14A4,4,0,0,1,538.5,412.987Z" fill="#3b6b7d"/><path d="M524.5,412.987a4,4,0,0,1-4-4v-14a4,4,0,0,1,8,0v14A4,4,0,0,1,524.5,412.987Z" fill="#3b6b7d"/><path d="M510.5,412.987a4,4,0,0,1-4-4v-14a4,4,0,0,1,8,0v14A4,4,0,0,1,510.5,412.987Z" fill="#3b6b7d"/><path d="M496.5,412.987a4,4,0,0,1-4-4v-14a4,4,0,0,1,8,0v14A4,4,0,0,1,496.5,412.987Z" fill="#3b6b7d"/><path d="M482.5,412.987a4,4,0,0,1-4-4v-14a4,4,0,0,1,8,0v14A4,4,0,0,1,482.5,412.987Z" fill="#3b6b7d"/><path d="M468.5,412.987a4,4,0,0,1-4-4v-14a4,4,0,0,1,8,0v14A4,4,0,0,1,468.5,412.987Z" fill="#3b6b7d"/><path d="M575,368.667H457a5,5,0,0,1,0-10H575a5,5,0,0,1,0,10Z" fill="#3b6b7d"/><path d="M500,331.005a3,3,0,0,1-3-3V227.24a3,3,0,0,1,6,0V328.005A3,3,0,0,1,500,331.005Z" fill="#3b6b7d"/><path d="M539.667,295a3,3,0,0,1-3-3V227.24a3,3,0,0,1,6,0V292A3,3,0,0,1,539.667,295Z" fill="#3b6b7d"/></g></g></svg>